<svg xmlns="http://www.w3.org/2000/svg" version="1.1" xmlns:xlink="http://www.w3.org/1999/xlink" xmlns:svgjs="http://svgjs.dev/svgjs" width="1400" height="695" preserveAspectRatio="none" viewBox="0 0 1400 695"><g mask="url(&quot;#SvgjsMask1182&quot;)" fill="none"><path d="M1015.27 517.59 a67.94 67.94 0 1 0 135.88 0 a67.94 67.94 0 1 0 -135.88 0z" fill="rgba(29, 103, 118, 1)"></path><path d="M726.45 499.55L765.14 499.55L765.14 538.24L726.45 538.24z" fill="#d3b714"></path><path d="M4.93 527.9 a17.87 17.87 0 1 0 35.74 0 a17.87 17.87 0 1 0 -35.74 0z" stroke="#037b0b"></path><path d="M355.96 43.99a58.82 58.82 0 1 0 98.1-64.92z" fill="#d3b714"></path><path d="M268.67 424.77 a31.3 31.3 0 1 0 62.6 0 a31.3 31.3 0 1 0 -62.6 0z" stroke="rgba(29, 103, 118, 1)"></path><path d="M329.42 414.6 a18.8 18.8 0 1 0 37.6 0 a18.8 18.8 0 1 0 -37.6 0z" fill="#d3b714"></path><path d="M744.81 86.24a58.11 58.11 0 1 0 13.02 115.48z" stroke="#037b0b"></path><path d="M956.62 545.06L977.7 545.06L977.7 566.14L956.62 566.14z" fill="#037b0b"></path><path d="M1277.88 307.94 a34.59 34.59 0 1 0 69.18 0 a34.59 34.59 0 1 0 -69.18 0z" stroke="#037b0b"></path><path d="M1431.04 296.79a48.32 48.32 0 1 0-75.7-60.06z" fill="#037b0b"></path><path d="M420.96 555.44L454.85 555.44L454.85 589.33L420.96 589.33z" fill="#037b0b"></path><path d="M1029.14 569.42 a16.95 16.95 0 1 0 33.9 0 a16.95 16.95 0 1 0 -33.9 0z" fill="rgba(29, 103, 118, 1)"></path><path d="M1355.75 651.94a58.16 58.16 0 1 0-72.14-91.25z" stroke="rgba(29, 103, 118, 1)"></path><path d="M153.72 282.48a19.14 19.14 0 1 0 4.82-37.97z" fill="#037b0b"></path><path d="M568.13 417.87 a37.34 37.34 0 1 0 74.68 0 a37.34 37.34 0 1 0 -74.68 0z" stroke="#037b0b"></path><path d="M28.74 166.36L78.71 166.36L78.71 233.95L28.74 233.95z" stroke="#d3b714"></path><path d="M435.21 683.15L500.57 683.15L500.57 683.59L435.21 683.59z" fill="#037b0b"></path><path d="M1348.27 169.29L1359.94 169.29L1359.94 225.57L1348.27 225.57z" stroke="rgba(29, 103, 118, 1)"></path><path d="M1286.22 553.31L1354.15 553.31L1354.15 621.24L1286.22 621.24z" fill="rgba(29, 103, 118, 1)"></path><path d="M1040.4 570.55L1058.88 570.55L1058.88 589.03L1040.4 589.03z" stroke="#037b0b"></path><path d="M924.51 42.89L947.04 42.89L947.04 70.41L924.51 70.41z" stroke="#d3b714"></path><path d="M475.26 288.26L491.27 288.26L491.27 324.58L475.26 324.58z" fill="#037b0b"></path><path d="M278.45 675.05L294.65 675.05L294.65 691.25L278.45 691.25z" fill="#d3b714"></path><path d="M37.95 239.8L46.45 239.8L46.45 248.3L37.95 248.3z" stroke="rgba(29, 103, 118, 1)"></path><path d="M498.98 523.14 a13.77 13.77 0 1 0 27.54 0 a13.77 13.77 0 1 0 -27.54 0z" fill="#037b0b"></path><path d="M904.99 539.72a18.87 18.87 0 1 0 36.52 9.49z" fill="rgba(29, 103, 118, 1)"></path></g><defs><mask id="SvgjsMask1182"><rect width="1400" height="695" fill="#ffffff"></rect></mask></defs></svg>