<?xml version="1.0" encoding="UTF-8"?>
<svg id="_Слой_1" data-name="Слой 1" xmlns="http://www.w3.org/2000/svg" version="1.1" viewBox="0 0 1000 1000">
  <defs>
    <style>
      .cls-1 {
        fill: #fff;
        stroke-width: 0px;
      }
    </style>
  </defs>
  <path class="cls-1" d="M701.4,471.6c-38.9,0-60.8,23.7-65.6,68h131.8c-4.3-42.5-29.2-68-66.2-68Z"/>
  <path class="cls-1" d="M900,0H100C44.8,0,0,44.8,0,100v800c0,55.2,44.8,100,100,100h800c55.2,0,100-44.8,100-100V100c0-55.2-44.8-100-100-100ZM615.5,323.6h176.2v55.1h-176.2v-55.1ZM489.2,693.2c-23.8,24.4-53.7,40.2-131.1,40.2h-193.3v-437.8h215.9c84.2,0,131.7,50,131.7,112.8s-11.6,69.5-53.7,89c41.5,14.6,67.7,49.4,67.7,106.1s-11.6,63.4-37.2,89.6ZM855.2,595h-221.8c3,52.9,27.9,79,75.9,79s48-11.5,54.7-35.2h87.5c-18.8,65.6-72.3,103.3-142.2,103.3-106.9,0-161-60.1-161-176.2s54.1-164,154.3-164,152.5,46.2,152.5,178v15.2Z"/>
  <path class="cls-1" d="M424.6,418.2c0-39.6-30.5-47-66.5-47h-105.5v95.7h108.5c32.3,0,63.4-11,63.4-48.8Z"/>
  <path class="cls-1" d="M368.5,540.8h-115.9v117.1h112.8c41.5,0,69.5-17.7,69.5-64s-24.4-53.1-66.5-53.1Z"/>
</svg>